<svg xmlns="http://www.w3.org/2000/svg" viewBox="0 0 1800 360" role="img" aria-label="从课程作品到活动表达">
<defs><linearGradient id="c" x2="0" y2="1"><stop stop-color="#fff"/><stop offset="1" stop-color="#f4f7fd"/></linearGradient><filter id="s"><feDropShadow dy="8" stdDeviation="10" flood-color="#123b8d" flood-opacity=".08"/></filter><marker id="a" viewBox="0 0 12 12" refX="10" refY="6" markerWidth="9" markerHeight="9" orient="auto"><path d="M1 1l9 5-9 5" fill="none" stroke="#ff6427" stroke-width="2" stroke-linecap="round" stroke-linejoin="round"/></marker></defs>
<g stroke="#ff6427" stroke-width="4" fill="none" marker-end="url(#a)"><path d="M320 128h75"/><path d="M680 128h75"/><path d="M1040 128h75"/><path d="M1400 128h75"/></g>
<g font-family="Microsoft YaHei, PingFang SC, sans-serif" fill="#123b8d">
<g transform="translate(70 28)" filter="url(#s)"><rect width="250" height="286" rx="22" fill="url(#c)" stroke="#b9cbea"/><circle cx="125" cy="92" r="58" fill="#fff" stroke="#8daae0" stroke-width="2"/><g fill="none" stroke="#123f93" stroke-width="10" stroke-linecap="round"><circle cx="112" cy="79" r="29"/><path d="m133 101 31 31"/></g><circle cx="229" cy="25" r="22" fill="#ff6427"/><text x="229" y="33" text-anchor="middle" fill="#fff" font-size="22" font-weight="700">1</text><text x="125" y="190" text-anchor="middle" font-size="26" font-weight="700">选择主题</text><text x="125" y="230" text-anchor="middle" font-size="15" fill="#66748c">从真实问题出发</text><text x="125" y="257" text-anchor="middle" font-size="15" fill="#66748c">明确目标与边界</text></g>
<g transform="translate(430 28)" filter="url(#s)"><rect width="250" height="286" rx="22" fill="url(#c)" stroke="#b9cbea"/><circle cx="125" cy="92" r="58" fill="#fff" stroke="#8daae0" stroke-width="2"/><g transform="translate(86 53) rotate(-7 40 40)" fill="none" stroke="#123f93" stroke-width="9" stroke-linecap="round" stroke-linejoin="round"><path d="m10 69 8-29L57 1l22 22-39 39Z"/><path d="m18 40 22 22M57 1l22 22"/><path d="m10 69 25-7"/></g><circle cx="229" cy="25" r="22" fill="#ff6427"/><text x="229" y="33" text-anchor="middle" fill="#fff" font-size="22" font-weight="700">2</text><text x="125" y="190" text-anchor="middle" font-size="26" font-weight="700">完善作品</text><text x="125" y="230" text-anchor="middle" font-size="15" fill="#66748c">设计、搭建与编程</text><text x="125" y="257" text-anchor="middle" font-size="15" fill="#66748c">反复调试形成成果</text></g>
<g transform="translate(790 28)" filter="url(#s)"><rect width="250" height="286" rx="22" fill="url(#c)" stroke="#b9cbea"/><circle cx="125" cy="92" r="58" fill="#fff" stroke="#8daae0" stroke-width="2"/><g fill="none" stroke="#123f93" stroke-width="8" stroke-linecap="round"><rect x="89" y="48" width="72" height="92" rx="10"/><path d="M108 47v-9h34v9M108 73h34M108 94h34M108 115h22"/></g><circle cx="229" cy="25" r="22" fill="#ff6427"/><text x="229" y="33" text-anchor="middle" fill="#fff" font-size="22" font-weight="700">3</text><text x="125" y="190" text-anchor="middle" font-size="26" font-weight="700">整理证据</text><text x="125" y="230" text-anchor="middle" font-size="15" fill="#66748c">记录过程与数据</text><text x="125" y="257" text-anchor="middle" font-size="15" fill="#66748c">形成完整证据链</text></g>
<g transform="translate(1150 28)" filter="url(#s)"><rect width="250" height="286" rx="22" fill="url(#c)" stroke="#b9cbea"/><circle cx="125" cy="92" r="58" fill="#fff" stroke="#8daae0" stroke-width="2"/><g fill="none" stroke="#123f93" stroke-width="8" stroke-linecap="round" stroke-linejoin="round"><path d="M84 60h82v54h-42l-24 19v-19H84Z"/><path d="M105 80h40M105 96h28"/></g><circle cx="229" cy="25" r="22" fill="#ff6427"/><text x="229" y="33" text-anchor="middle" fill="#fff" font-size="22" font-weight="700">4</text><text x="125" y="190" text-anchor="middle" font-size="26" font-weight="700">反复演练</text><text x="125" y="230" text-anchor="middle" font-size="15" fill="#66748c">模拟问答与展示</text><text x="125" y="257" text-anchor="middle" font-size="15" fill="#66748c">打磨表达节奏</text></g>
<g transform="translate(1510 28)" filter="url(#s)"><rect width="250" height="286" rx="22" fill="url(#c)" stroke="#b9cbea"/><circle cx="125" cy="92" r="58" fill="#fff" stroke="#8daae0" stroke-width="2"/><g fill="none" stroke="#123f93" stroke-width="8" stroke-linecap="round"><rect x="82" y="49" width="86" height="61" rx="5"/><path d="M125 110v28M99 138h52M103 72h43M103 88h31"/></g><circle cx="229" cy="25" r="22" fill="#ff6427"/><text x="229" y="33" text-anchor="middle" fill="#fff" font-size="22" font-weight="700">5</text><text x="125" y="190" text-anchor="middle" font-size="26" font-weight="700">现场表达</text><text x="125" y="230" text-anchor="middle" font-size="15" fill="#66748c">清晰呈现项目价值</text><text x="125" y="257" text-anchor="middle" font-size="15" fill="#66748c">自信回应评委提问</text></g></g></svg>
